<svg id="visual" viewBox="0 0 330 330" width="330" height="330" xmlns="http://www.w3.org/2000/svg" xmlns:xlink="http://www.w3.org/1999/xlink" version="1.1"><path d="M0 51L17 51L17 44L35 44L35 41L52 41L52 51L69 51L69 64L87 64L87 77L104 77L104 54L122 54L122 57L139 57L139 84L156 84L156 70L174 70L174 47L191 47L191 27L208 27L208 37L226 37L226 31L243 31L243 47L261 47L261 34L278 34L278 64L295 64L295 44L313 44L313 47L330 47L330 74L330 0L330 0L313 0L313 0L295 0L295 0L278 0L278 0L261 0L261 0L243 0L243 0L226 0L226 0L208 0L208 0L191 0L191 0L174 0L174 0L156 0L156 0L139 0L139 0L122 0L122 0L104 0L104 0L87 0L87 0L69 0L69 0L52 0L52 0L35 0L35 0L17 0L17 0L0 0Z" fill="#6600ff"></path><path d="M0 97L17 97L17 87L35 87L35 67L52 67L52 103L69 103L69 133L87 133L87 143L104 143L104 107L122 107L122 107L139 107L139 120L156 120L156 113L174 113L174 90L191 90L191 77L208 77L208 60L226 60L226 70L243 70L243 100L261 100L261 107L278 107L278 113L295 113L295 90L313 90L313 107L330 107L330 136L330 72L330 45L313 45L313 42L295 42L295 62L278 62L278 32L261 32L261 45L243 45L243 29L226 29L226 35L208 35L208 25L191 25L191 45L174 45L174 68L156 68L156 82L139 82L139 55L122 55L122 52L104 52L104 75L87 75L87 62L69 62L69 49L52 49L52 39L35 39L35 42L17 42L17 49L0 49Z" fill="#672bfd"></path><path d="M0 189L17 189L17 199L35 199L35 176L52 176L52 232L69 232L69 186L87 186L87 219L104 219L104 156L122 156L122 199L139 199L139 219L156 219L156 169L174 169L174 202L191 202L191 189L208 189L208 163L226 163L226 126L243 126L243 192L261 192L261 206L278 206L278 196L295 196L295 143L313 143L313 196L330 196L330 206L330 134L330 105L313 105L313 88L295 88L295 111L278 111L278 105L261 105L261 98L243 98L243 68L226 68L226 58L208 58L208 75L191 75L191 88L174 88L174 111L156 111L156 118L139 118L139 105L122 105L122 105L104 105L104 141L87 141L87 131L69 131L69 101L52 101L52 65L35 65L35 85L17 85L17 95L0 95Z" fill="#6940fa"></path><path d="M0 291L17 291L17 308L35 308L35 298L52 298L52 282L69 282L69 295L87 295L87 278L104 278L104 288L122 288L122 311L139 311L139 295L156 295L156 311L174 311L174 288L191 288L191 278L208 278L208 295L226 295L226 285L243 285L243 301L261 301L261 308L278 308L278 282L295 282L295 288L313 288L313 308L330 308L330 295L330 204L330 194L313 194L313 141L295 141L295 194L278 194L278 204L261 204L261 190L243 190L243 124L226 124L226 161L208 161L208 187L191 187L191 200L174 200L174 167L156 167L156 217L139 217L139 197L122 197L122 154L104 154L104 217L87 217L87 184L69 184L69 230L52 230L52 174L35 174L35 197L17 197L17 187L0 187Z" fill="#6c50f6"></path><path d="M0 331L17 331L17 331L35 331L35 331L52 331L52 331L69 331L69 331L87 331L87 331L104 331L104 331L122 331L122 331L139 331L139 331L156 331L156 331L174 331L174 331L191 331L191 331L208 331L208 331L226 331L226 331L243 331L243 331L261 331L261 331L278 331L278 331L295 331L295 331L313 331L313 331L330 331L330 331L330 293L330 306L313 306L313 286L295 286L295 280L278 280L278 306L261 306L261 299L243 299L243 283L226 283L226 293L208 293L208 276L191 276L191 286L174 286L174 309L156 309L156 293L139 293L139 309L122 309L122 286L104 286L104 276L87 276L87 293L69 293L69 280L52 280L52 296L35 296L35 306L17 306L17 289L0 289Z" fill="#715df2"></path></svg>