<svg id="visual" viewBox="0 0 330 330" width="330" height="330" xmlns="http://www.w3.org/2000/svg" xmlns:xlink="http://www.w3.org/1999/xlink" version="1.1"><rect width="330" height="330" fill="#001829"></rect><g><g transform="translate(53 297)"><path d="M0 -45.1L39 -22.5L39 22.5L0 45.1L-39 22.5L-39 -22.5Z" fill="none" stroke="#8f52eb" stroke-width="2"></path></g><g transform="translate(258 98)"><path d="M0 -42L36.4 -21L36.4 21L0 42L-36.4 21L-36.4 -21Z" fill="none" stroke="#8f52eb" stroke-width="2"></path></g><g transform="translate(301 237)"><path d="M0 -38L32.9 -19L32.9 19L0 38L-32.9 19L-32.9 -19Z" fill="none" stroke="#8f52eb" stroke-width="2"></path></g><g transform="translate(126 38)"><path d="M0 -28L24.2 -14L24.2 14L0 28L-24.2 14L-24.2 -14Z" fill="none" stroke="#8f52eb" stroke-width="2"></path></g><g transform="translate(188 176)"><path d="M0 -30L26 -15L26 15L0 30L-26 15L-26 -15Z" fill="none" stroke="#8f52eb" stroke-width="2"></path></g><g transform="translate(20 76)"><path d="M0 -25L21.7 -12.5L21.7 12.5L0 25L-21.7 12.5L-21.7 -12.5Z" fill="none" stroke="#8f52eb" stroke-width="2"></path></g><g transform="translate(4 219)"><path d="M0 -25L21.7 -12.5L21.7 12.5L0 25L-21.7 12.5L-21.7 -12.5Z" fill="none" stroke="#8f52eb" stroke-width="2"></path></g><g transform="translate(323 18)"><path d="M0 -29L25.1 -14.5L25.1 14.5L0 29L-25.1 14.5L-25.1 -14.5Z" fill="none" stroke="#8f52eb" stroke-width="2"></path></g><g transform="translate(216 294)"><path d="M0 -35L30.3 -17.5L30.3 17.5L0 35L-30.3 17.5L-30.3 -17.5Z" fill="none" stroke="#8f52eb" stroke-width="2"></path></g><g transform="translate(87 162)"><path d="M0 -37L32 -18.5L32 18.5L0 37L-32 18.5L-32 -18.5Z" fill="none" stroke="#8f52eb" stroke-width="2"></path></g></g></svg>